<?xml version="1.0" encoding="UTF-8" standalone="no"?>
<!-- Created with Inkscape (http://www.inkscape.org/) -->

<svg
   version="1.1"
   width="242.37764"
   height="361.99982"
   id="svg2"
   sodipodi:docname="blue_7.svg"
   inkscape:version="1.3.2 (091e20e, 2023-11-25, custom)"
   xmlns:inkscape="http://www.inkscape.org/namespaces/inkscape"
   xmlns:sodipodi="http://sodipodi.sourceforge.net/DTD/sodipodi-0.dtd"
   xmlns="http://www.w3.org/2000/svg"
   xmlns:svg="http://www.w3.org/2000/svg"
   xmlns:rdf="http://www.w3.org/1999/02/22-rdf-syntax-ns#"
   xmlns:cc="http://creativecommons.org/ns#"
   xmlns:dc="http://purl.org/dc/elements/1.1/">
  <sodipodi:namedview
     id="namedview1"
     pagecolor="#505050"
     bordercolor="#eeeeee"
     borderopacity="1"
     inkscape:showpageshadow="0"
     inkscape:pageopacity="0"
     inkscape:pagecheckerboard="0"
     inkscape:deskcolor="#505050"
     inkscape:zoom="0.38133241"
     inkscape:cx="100.96178"
     inkscape:cy="-688.37579"
     inkscape:window-width="2560"
     inkscape:window-height="1334"
     inkscape:window-x="-11"
     inkscape:window-y="-11"
     inkscape:window-maximized="1"
     inkscape:current-layer="layer1" />
  <defs
     id="defs4" />
  <metadata
     id="metadata7">
    <rdf:RDF>
      <cc:Work
         rdf:about="">
        <dc:format>image/svg+xml</dc:format>
        <dc:type
           rdf:resource="http://purl.org/dc/dcmitype/StillImage" />
      </cc:Work>
    </rdf:RDF>
  </metadata>
  <g
     transform="matrix(1.0015605,0,0,0.99999946,-419.65385,-1771.3612)"
     id="layer1">
    <g
       transform="matrix(4,0,0,4,-1260,442.91347)"
       id="g6611-6-9">
      <rect
         width="60"
         height="90"
         rx="10"
         ry="10"
         x="420"
         y="332.36218"
         id="rect2987-4-30-5"
         style="fill:#ffffff;fill-opacity:1;fill-rule:evenodd;stroke:#000000;stroke-width:0.5;stroke-miterlimit:4;stroke-dasharray:none" />
      <rect
         width="50"
         height="80"
         rx="5"
         ry="5"
         x="425"
         y="337.36218"
         id="rect3757-2-19-5"
         style="fill:#5555ff;fill-opacity:1;fill-rule:evenodd;stroke:none" />
      <path
         d="m 465,352.36215 c -22.09139,0 -40,17.90861 -40,40 0,5.52285 4.47715,10 10,10 22.09139,0 40,-17.90861 40,-40 0,-5.52285 -4.47715,-10 -10,-10 z"
         id="path3773-0-4-8-4-3-04-5"
         style="fill:#ffffff;fill-opacity:1;fill-rule:evenodd;stroke:none" />
      <path
         d="m 441.5,362.36217 v 10 h 5 v -5 h 10 l -10,25 h 5 l 10,-25 v -5 h -15 z"
         id="rect4014-2-6"
         style="fill:#5555ff;fill-opacity:1;fill-rule:evenodd;stroke:none" />
      <path
         d="m 427.5,339.86217 v 5 h 2.5 v -2.5 h 5 l -5,12.5 h 2.5 l 5,-12.5 v -2.5 H 430 Z"
         id="rect4014-3-93-0"
         style="fill:#ffffff;fill-opacity:1;fill-rule:evenodd;stroke:none" />
      <path
         d="m 472.5,414.86217 v -5 H 470 v 2.5 h -5 l 5,-12.5 h -2.5 l -5,12.5 v 2.5 h 7.5 z"
         id="rect4014-3-3-1-5"
         style="fill:#ffffff;fill-opacity:1;fill-rule:evenodd;stroke:none" />
    </g>
  </g>
</svg>
