<?xml version="1.0" encoding="UTF-8" standalone="no"?>
<!-- Created with Inkscape (http://www.inkscape.org/) -->

<svg
   version="1.1"
   width="242.37764"
   height="361.99982"
   id="svg2"
   sodipodi:docname="blue_4.svg"
   inkscape:version="1.3.2 (091e20e, 2023-11-25, custom)"
   xmlns:inkscape="http://www.inkscape.org/namespaces/inkscape"
   xmlns:sodipodi="http://sodipodi.sourceforge.net/DTD/sodipodi-0.dtd"
   xmlns="http://www.w3.org/2000/svg"
   xmlns:svg="http://www.w3.org/2000/svg"
   xmlns:rdf="http://www.w3.org/1999/02/22-rdf-syntax-ns#"
   xmlns:cc="http://creativecommons.org/ns#"
   xmlns:dc="http://purl.org/dc/elements/1.1/">
  <sodipodi:namedview
     id="namedview1"
     pagecolor="#505050"
     bordercolor="#eeeeee"
     borderopacity="1"
     inkscape:showpageshadow="0"
     inkscape:pageopacity="0"
     inkscape:pagecheckerboard="0"
     inkscape:deskcolor="#505050"
     inkscape:zoom="0.38133241"
     inkscape:cx="717.22202"
     inkscape:cy="-869.32029"
     inkscape:window-width="2560"
     inkscape:window-height="1334"
     inkscape:window-x="-11"
     inkscape:window-y="-11"
     inkscape:window-maximized="1"
     inkscape:current-layer="layer1" />
  <defs
     id="defs4" />
  <metadata
     id="metadata7">
    <rdf:RDF>
      <cc:Work
         rdf:about="">
        <dc:format>image/svg+xml</dc:format>
        <dc:type
           rdf:resource="http://purl.org/dc/dcmitype/StillImage" />
      </cc:Work>
    </rdf:RDF>
  </metadata>
  <g
     transform="matrix(1.0015605,0,0,0.99999946,301.46971,-1771.3612)"
     id="layer1">
    <g
       transform="matrix(4,0,0,4,-1260,442.91347)"
       id="g6587-5-1">
      <rect
         width="60"
         height="90"
         rx="10"
         ry="10"
         x="240"
         y="332.36218"
         id="rect2987-8-5-0-2-8"
         style="fill:#ffffff;fill-opacity:1;fill-rule:evenodd;stroke:#000000;stroke-width:0.5;stroke-miterlimit:4;stroke-dasharray:none" />
      <rect
         width="50"
         height="80"
         rx="5"
         ry="5"
         x="245"
         y="337.36218"
         id="rect3757-26-33-8-6-6"
         style="fill:#5555ff;fill-opacity:1;fill-rule:evenodd;stroke:none" />
      <path
         d="m 285,352.36217 c -22.09139,0 -40,17.90861 -40,40 0,5.52285 4.47715,10 10,10 22.09139,0 40,-17.90861 40,-40 0,-5.52285 -4.47715,-10 -10,-10 z"
         id="path3773-0-4-8-4-60-3-8-89-0"
         style="fill:#ffffff;fill-opacity:1;fill-rule:evenodd;stroke:none" />
      <path
         d="M 268.80001,362.36219 259,382.36217 v 5 h 12 v 5.00002 h 5 v -5.00002 h 3 v -5 h -3 v -9.99997 h -5 v 9.99997 h -6.8 l 9.8,-19.99998 z"
         id="rect3980-7-6-2-9-5-60-2-2-2"
         style="fill:#5555ff;fill-opacity:1;stroke:none" />
      <path
         d="m 252.3,339.86217 -4.9,10 v 2.50001 h 6 v 2.50001 h 2.5 v -2.50001 h 1.5 v -2.50001 h -1.5 v -4.99999 h -2.5 v 4.99999 H 250 l 4.9,-10 z"
         id="rect3980-7-6-2-9-5-60-5-3-95-4"
         style="fill:#ffffff;fill-opacity:1;stroke:none" />
      <path
         d="m 287.5,414.86217 4.9,-10 v -2.50001 h -6 v -2.50001 h -2.5 v 2.50001 h -1.5 v 2.50001 h 1.5 v 4.99999 h 2.5 v -4.99999 h 3.4 l -4.9,10 z"
         id="rect3980-7-6-2-9-5-60-5-3-9-9-9"
         style="fill:#ffffff;fill-opacity:1;stroke:none" />
    </g>
  </g>
</svg>
