<?xml version="1.0" encoding="UTF-8" standalone="no"?>
<!-- Created with Inkscape (http://www.inkscape.org/) -->

<svg
   version="1.1"
   width="242.37764"
   height="361.99982"
   id="svg2"
   sodipodi:docname="blue_9.svg"
   inkscape:version="1.3.2 (091e20e, 2023-11-25, custom)"
   xmlns:inkscape="http://www.inkscape.org/namespaces/inkscape"
   xmlns:sodipodi="http://sodipodi.sourceforge.net/DTD/sodipodi-0.dtd"
   xmlns="http://www.w3.org/2000/svg"
   xmlns:svg="http://www.w3.org/2000/svg"
   xmlns:rdf="http://www.w3.org/1999/02/22-rdf-syntax-ns#"
   xmlns:cc="http://creativecommons.org/ns#"
   xmlns:dc="http://purl.org/dc/elements/1.1/">
  <sodipodi:namedview
     id="namedview1"
     pagecolor="#505050"
     bordercolor="#eeeeee"
     borderopacity="1"
     inkscape:showpageshadow="0"
     inkscape:pageopacity="0"
     inkscape:pagecheckerboard="0"
     inkscape:deskcolor="#505050"
     inkscape:zoom="0.38133241"
     inkscape:cx="-483.82984"
     inkscape:cy="-869.32029"
     inkscape:window-width="2560"
     inkscape:window-height="1334"
     inkscape:window-x="-11"
     inkscape:window-y="-11"
     inkscape:window-maximized="1"
     inkscape:current-layer="layer1" />
  <defs
     id="defs4" />
  <metadata
     id="metadata7">
    <rdf:RDF>
      <cc:Work
         rdf:about="">
        <dc:format>image/svg+xml</dc:format>
        <dc:type
           rdf:resource="http://purl.org/dc/dcmitype/StillImage" />
      </cc:Work>
    </rdf:RDF>
  </metadata>
  <g
     transform="matrix(1.0015605,0,0,0.99999946,-900.40289,-1771.3612)"
     id="layer1">
    <g
       transform="matrix(4,0,0,4,-1260,442.91347)"
       id="g6627-83-0">
      <rect
         width="60"
         height="90"
         rx="10"
         ry="10"
         x="540"
         y="332.36218"
         id="rect2987-8-5-81-79-3"
         style="fill:#ffffff;fill-opacity:1;fill-rule:evenodd;stroke:#000000;stroke-width:0.5;stroke-miterlimit:4;stroke-dasharray:none" />
      <rect
         width="50"
         height="80"
         rx="5"
         ry="5"
         x="545"
         y="337.36218"
         id="rect3757-26-33-5-39-4"
         style="fill:#5555ff;fill-opacity:1;fill-rule:evenodd;stroke:none" />
      <path
         d="m 585,352.36217 c -22.09139,0 -40,17.90861 -40,40 0,5.52285 4.47715,10 10,10 22.09139,0 40,-17.90861 40,-40 0,-5.52285 -4.47715,-10 -10,-10 z"
         id="path3773-0-4-8-4-60-3-86-1-1"
         style="fill:#ffffff;fill-opacity:1;fill-rule:evenodd;stroke:none" />
      <path
         d="m 570,362.36217 c -5.52285,0 -10,4.47715 -10,10 0,5.52285 4.47715,10 10,10 1.817,0 3.53157,-0.49674 5,-1.34375 v 1.34375 c 0,2.76142 -2.23858,5 -5,5 -1.95426,0 -3.6151,-1.14704 -4.4375,-2.78125 l -4.5,2.25 c 1.63927,3.28436 5.01726,5.53125 8.9375,5.53125 5.52285,0 10,-4.47715 10,-10 v -10 c 0,-5.52285 -4.47715,-10 -10,-10 z m 0,5 c 2.76142,0 5,2.23858 5,5 0,2.76142 -2.23858,5 -5,5 -2.76142,0 -5,-2.23858 -5,-5 0,-2.76142 2.23858,-5 5,-5 z m -5,26 v 2 h 10 v -2 z"
         id="path3962-5-8-8-2"
         style="fill:#5555ff;fill-opacity:1;fill-rule:evenodd;stroke:none" />
      <path
         d="m 552.5,354.86218 c 2.76143,0 5,-2.23859 5,-5.00001 v -4.99998 c 0,-2.76143 -2.23857,-5.00001 -5,-5.00001 -2.76142,0 -5,2.23858 -5,5.00001 0,2.76141 2.23858,4.99998 5,4.99998 0.9085,0 1.76579,-0.24837 2.5,-0.67187 v 0.67187 c 0,1.38071 -1.11929,2.5 -2.5,2.5 -0.97712,0 -1.80755,-0.57351 -2.21874,-1.39062 l -2.25,1.125 c 0.81962,1.64218 2.50862,2.76563 4.46874,2.76563 z m 0,-7.5 c -1.3807,0 -2.49999,-1.11928 -2.49999,-2.49999 0,-1.38071 1.11929,-2.50001 2.49999,-2.50001 1.38071,0 2.5,1.1193 2.5,2.50001 0,1.38071 -1.11929,2.49999 -2.5,2.49999 z"
         id="path3962-5-6-2-1-9-2-2"
         style="fill:#ffffff;fill-opacity:1;fill-rule:evenodd;stroke:none" />
      <path
         d="m 587.5,399.86216 c -2.76143,0 -5,2.23859 -5,5.00001 v 4.99998 c 0,2.76143 2.23857,5.00001 5,5.00001 2.76142,0 5,-2.23858 5,-5.00001 0,-2.76141 -2.23858,-4.99998 -5,-4.99998 -0.9085,0 -1.76579,0.24837 -2.5,0.67187 v -0.67187 c 0,-1.38071 1.11929,-2.5 2.5,-2.5 0.97712,0 1.80755,0.57351 2.21874,1.39062 l 2.25,-1.125 c -0.81962,-1.64218 -2.50862,-2.76563 -4.46874,-2.76563 z m 0,7.5 c 1.3807,0 2.49999,1.11928 2.49999,2.49999 0,1.38071 -1.11929,2.50001 -2.49999,2.50001 -1.38071,0 -2.5,-1.1193 -2.5,-2.50001 0,-1.38071 1.11929,-2.49999 2.5,-2.49999 z"
         id="path3962-5-6-2-1-8-7-8-9"
         style="fill:#ffffff;fill-opacity:1;fill-rule:evenodd;stroke:none" />
    </g>
  </g>
</svg>
